<svg width="24" height="24" viewBox="0 0 24 24" fill="none" xmlns="http://www.w3.org/2000/svg">
<path d="M4.71164 2C4.51758 2 4.33147 2.07709 4.19424 2.21431L2.21431 4.19424C2.07709 4.33147 2 4.51758 2 4.71164C2 5.36352 2.78816 5.68998 3.2491 5.22903L5.22903 3.2491C5.68998 2.78815 5.36352 2 4.71164 2Z" fill="#0071BC"/>
<path d="M8.8508 2C8.65674 2 8.47063 2.07709 8.33341 2.21431L2.21431 8.33341C2.07709 8.47063 2 8.65674 2 8.8508C2 9.50268 2.78815 9.82915 3.2491 9.3682L9.3682 3.2491C9.82915 2.78815 9.50268 2 8.8508 2Z" fill="#0071BC"/>
<path d="M12.99 2C12.7959 2 12.6098 2.07709 12.4726 2.21431L2.21431 12.4726C2.07709 12.6098 2 12.7959 2 12.99C2 13.6418 2.78815 13.9683 3.2491 13.5074L13.5074 3.2491C13.9683 2.78815 13.6418 2 12.99 2Z" fill="#0071BC"/>
<path d="M17.1291 2C16.9351 2 16.749 2.07709 16.6117 2.21431L2.21431 16.6117C2.07709 16.7489 2 16.9351 2 17.1291C2 17.781 2.78815 18.1075 3.2491 17.6465L17.6465 3.2491C18.1075 2.78815 17.781 2 17.1291 2Z" fill="#0071BC"/>
<path d="M21.2683 2C21.0742 2 20.8881 2.07709 20.7509 2.21431L2.21431 20.7509C2.07709 20.8881 2 21.0742 2 21.2683C2 21.6724 2.32759 22 2.7317 22C2.92576 22 3.11187 21.9229 3.24909 21.7857L21.7857 3.24909C21.9229 3.11187 22 2.92576 22 2.7317C22 2.32759 21.6724 2 21.2683 2Z" fill="#0071BC"/>
<path d="M22 6.87086C22 6.21898 21.2118 5.89252 20.7509 6.35347L6.35347 20.7509C5.89251 21.2119 6.21898 22 6.87086 22C7.06492 22 7.25104 21.9229 7.38826 21.7857L21.7857 7.38826C21.9229 7.25104 22 7.06492 22 6.87086Z" fill="#0071BC"/>
<path d="M22 11.01C22 10.3581 21.2118 10.0317 20.7509 10.4926L10.4926 20.7509C10.0317 21.2119 10.3581 22 11.01 22C11.2041 22 11.3902 21.9229 11.5274 21.7857L21.7857 11.5274C21.9229 11.3902 22 11.2041 22 11.01Z" fill="#0071BC"/>
<path d="M22 15.1492C22 14.4973 21.2118 14.1708 20.7509 14.6318L14.6318 20.7509C14.1708 21.2119 14.4973 22 15.1492 22C15.3432 22 15.5294 21.9229 15.6666 21.7857L21.7857 15.6666C21.9229 15.5294 22 15.3432 22 15.1492Z" fill="#0071BC"/>
<path d="M22 19.2883C22 18.6365 21.2118 18.31 20.7509 18.771L18.771 20.7509C18.31 21.2118 18.6365 22 19.2883 22C19.4824 22 19.6685 21.9229 19.8057 21.7857L21.7857 19.8057C21.9229 19.6685 22 19.4824 22 19.2883Z" fill="#0071BC"/>
</svg>
